HIERARCHY
ROOT Hips
{
	OFFSET	0.000000	0.000000	0.000000
	CHANNELS 6 Xposition Yposition Zposition Zrotation Xrotation Yrotation
	JOINT LeftHip
	{
		OFFSET	4.740440	-3.195970	-0.322709
		CHANNELS 3 Zrotation Xrotation Yrotation
		JOINT LeftKnee
		{
			OFFSET	-1.605680	-15.592300	1.005510
			CHANNELS 3 Zrotation Xrotation Yrotation
			JOINT LeftAnkle
			{
				OFFSET	-0.632401	-16.421000	-1.413730
				CHANNELS 3 Zrotation Xrotation Yrotation
				End Site
				{
					OFFSET	0.008423	-3.021750	-1.660875
				}
			}
		}
	}
	JOINT RightHip
	{
		OFFSET	-4.740440	-3.195970	-0.322709
		CHANNELS 3 Zrotation Xrotation Yrotation
		JOINT RightKnee
		{
			OFFSET	1.605680	-15.592300	1.005510
			CHANNELS 3 Zrotation Xrotation Yrotation
			JOINT RightAnkle
			{
				OFFSET	0.632401	-16.421000	-1.413730
				CHANNELS 3 Zrotation Xrotation Yrotation
				End Site
				{
					OFFSET	-0.008423	-3.021750	-1.660875
				}
			}
		}
	}
	JOINT Chest
	{
		OFFSET	0.000000	3.468200	0.078401
		CHANNELS 3 Zrotation Xrotation Yrotation
		JOINT LeftCollar
		{
			OFFSET	3.857650	15.070700	-0.011583
			CHANNELS 3 Zrotation Xrotation Yrotation
			JOINT LeftShoulder
			{
				OFFSET	3.979720	-1.940530	-0.165223
				CHANNELS 3 Zrotation Xrotation Yrotation
				JOINT LeftElbow
				{
					OFFSET	0.615844	-10.986600	-0.673886
					CHANNELS 3 Zrotation Xrotation Yrotation
					JOINT LeftWrist
					{
						OFFSET	0.826843	-10.854500	1.034220
						CHANNELS 3 Zrotation Xrotation Yrotation
						End Site
						{
							OFFSET	-1.679080	-8.456540	0.936217
						}
					}
				}
			}
		}
		JOINT RightCollar
		{
			OFFSET	-3.857650	15.070700	-0.011583
			CHANNELS 3 Zrotation Xrotation Yrotation
			JOINT RightShoulder
			{
				OFFSET	-3.979720	-1.940530	-0.165223
				CHANNELS 3 Zrotation Xrotation Yrotation
				JOINT RightElbow
				{
					OFFSET	-0.615845	-10.986600	-0.673886
					CHANNELS 3 Zrotation Xrotation Yrotation
					JOINT RightWrist
					{
						OFFSET	-0.826843	-10.854500	1.034220
						CHANNELS 3 Zrotation Xrotation Yrotation
						End Site
						{
							OFFSET	1.679080	-8.456540	0.936217
						}
					}
				}
			}
		}
		JOINT Neck
		{
			OFFSET	0.000000	15.101400	0.055730
			CHANNELS 3 Zrotation Xrotation Yrotation
			JOINT Head
			{
				OFFSET	0.000000	4.185120	1.488260
				CHANNELS 3 Zrotation Xrotation Yrotation
				End Site
				{
					OFFSET	0.000000	7.773420	-0.106016
				}
			}
		}
	}
}
MOTION
Frames:     6
Frame Time: 0.016667
-7.666219	31.358017	-12.022465	-5.094562	-9.615079	-23.092430	47.554295	-27.244255	13.419651	-36.684830	48.438904	28.126986	-13.009888	-6.309957	-2.250799	-38.752804	-11.286497	-7.620901	20.666700	52.828056	-10.225357	21.759403	-24.850765	1.582187	0.521691	18.766031	0.399500	-2.282930	3.238458	-1.198079	37.138947	-17.895224	20.637720	32.849743	-132.231430	16.102518	9.155388	-15.105577	-8.754248	-2.213084	-4.199477	16.701820	0.997954	-37.993649	8.455442	-65.086273	-130.792633	-51.286091	-9.112164	-18.769688	13.919760	-6.666020	-2.239160	12.376575	1.029890	-0.257005	9.605656	
-8.045908	31.200117	-12.397141	-4.786908	-9.851914	-23.579943	48.383064	-26.974207	12.065496	-35.868599	46.220917	28.903461	-15.032167	-4.002028	-2.609154	-40.294159	-12.149557	-10.488243	22.490671	55.083206	-10.343346	20.466278	-25.364311	3.020962	0.230833	18.871576	0.644142	-2.751446	3.954617	-1.527288	34.735069	-19.809626	21.221027	29.882317	-132.167221	12.307051	9.281446	-15.464660	-7.902747	-1.881018	-3.209701	15.889812	1.985112	-37.544918	8.819856	-64.082962	-132.860214	-50.802773	-8.851259	-18.861469	14.287455	-6.800114	-2.184035	12.603494	0.814894	-0.346460	9.798780	
-8.193833	31.141180	-12.522743	-4.672248	-9.848894	-23.725010	48.828163	-26.846985	11.788293	-35.097656	45.231342	28.766830	-15.829371	-2.874005	-2.652216	-40.671928	-12.540058	-11.226698	23.162508	55.842247	-10.478360	20.267202	-25.635187	3.253862	0.210736	18.811523	0.583052	-2.975118	4.153279	-1.520639	34.040215	-20.364489	21.294987	29.052568	-132.193893	11.175367	9.235823	-15.565424	-7.841577	-1.640004	-2.789482	15.419349	2.278431	-37.368267	9.248121	-63.877747	-133.470200	-50.748680	-8.846109	-19.090080	14.277529	-7.015491	-1.964892	12.769006	0.792827	-0.668096	9.936378	
-8.677236	30.975851	-12.936744	-4.428731	-10.026422	-24.071398	48.902931	-26.372917	11.748589	-33.846848	44.367886	28.451311	-16.611416	-2.052915	-3.016669	-41.007114	-13.971101	-11.645924	26.151066	57.988014	-12.304716	18.698626	-26.858839	2.951986	0.334117	18.981167	-0.046012	-3.634500	4.655565	-1.403972	32.267010	-21.736740	21.640676	27.278048	-132.407242	8.778310	9.203154	-15.743544	-7.215152	-1.848146	-2.512828	15.548137	2.764298	-36.322849	8.735142	-63.474827	-134.936844	-50.930115	-8.692837	-19.790619	14.374174	-7.704431	-1.771642	13.424332	0.657107	-1.444330	10.473465	
-8.836265	30.922518	-13.081188	-4.318137	-10.114303	-24.137838	48.934238	-26.068514	11.697901	-32.316822	43.616478	27.962666	-17.439285	-1.261025	-3.509103	-41.042828	-14.471636	-11.575684	27.166340	58.663361	-13.163138	18.338007	-27.257200	2.813715	0.377106	19.100878	-0.327904	-3.830130	4.750388	-1.399305	31.768450	-22.042130	21.789791	26.913208	-132.547287	8.365376	9.180799	-15.762149	-6.808079	-1.888328	-2.267962	15.046859	3.165264	-36.130226	9.242795	-63.435894	-135.339096	-51.095528	-8.631639	-19.944311	14.329797	-7.765281	-2.066455	13.619561	0.520502	-1.393845	10.667130	
-9.265659	30.795448	-13.464623	-3.889469	-10.399969	-24.157288	48.483368	-25.671453	11.600649	-30.745722	42.820213	27.411242	-18.432035	-0.256452	-3.861979	-41.222469	-15.622921	-11.897871	29.291185	60.524860	-15.107211	17.262241	-28.270708	2.766314	0.431673	19.450495	-0.974455	-4.205541	4.932415	-1.735062	30.554096	-22.644039	21.926271	25.909815	-132.919266	7.529324	8.976241	-15.636950	-5.185662	-2.294674	-2.307680	14.788386	3.391751	-35.204273	8.639163	-63.708359	-136.362869	-52.074402	-8.710767	-20.155428	13.894126	-7.810083	-3.048137	13.769647	0.106480	-1.185461	11.214707	
